{"title":"It's A Wonderful Life x264","uid":7592077,"size":1603917061,"categoryP":"video","categoryS":"movies","magnet":"?xt=urn:btih:74c748938ab753784f9feb4128191b18864a2299&amp;dn=It%27s+A+Wonderful+Life+x264&amp;tr=udp%3A%2F%2Ftracker.openbittorrent.com%3A80&amp;tr=udp%3A%2F%2Fopen.demonii.com%3A1337&amp;tr=udp%3A%2F%2Ftracker.coppersurfer.tk%3A6969&amp;tr=udp%3A%2F%2Fexodus.desync.com%3A6969","seeders":0,"leechers":0,"uploader":"enonumus","files":1,"time":1346582708,"description":"Amazingly there wasn't a high quality, full resolution, original B&amp;W version on this site, so here it is.  If you want the original B&amp;W movie, this is the best version available.  Enjoy and PLEASE SEED if you want this to remain available for others, otherwise it will die.\n\nSpecs:\n\n\nGeneral\nFormat                           : MPEG-4\nFile size                        : 1.49 GiB\nDuration                         : 2h 10mn\nOverall bit rate mode            : Variable\nOverall bit rate                 : 1 637 Kbps\n\nVideo\nFormat                           : AVC\nDuration                         : 2h 10mn\nBit rate mode                    : Variable\nBit rate                         : 1 422 Kbps\nWidth                            : 720 pixels\nHeight                           : 544 pixels\nDisplay aspect ratio             : 4:3\nFrame rate                       : 23.976 fps\nStream size                      : 1.30 GiB (87%)\nWriting library                  : x264 core 112\n\nAudio\nFormat                           : AAC\nDuration                         : 2h 10mn\nBit rate mode                    : Variable\nBit rate                         : 210 Kbps\nMaximum bit rate                 : 235 Kbps\nChannel(s)                       : 2 channels\nChannel positions                : Front: L R\nSampling rate                    : 48.0 KHz\nStream size                      : 196 MiB (13%)\nLanguage                         : English","torrent":{"xt":"urn:btih:74c748938ab753784f9feb4128191b18864a2299","amp;dn":"It%27s+A+Wonderful+Life+x264","amp;tr":["udp%3A%2F%2Ftracker.openbittorrent.com%3A80","udp%3A%2F%2Fopen.demonii.com%3A1337","udp%3A%2F%2Ftracker.coppersurfer.tk%3A6969","udp%3A%2F%2Fexodus.desync.com%3A6969"],"infoHash":"74c748938ab753784f9feb4128191b18864a2299","infoHashBuffer":{"type":"Buffer","data":[116,199,72,147,138,183,83,120,79,159,235,65,40,25,27,24,134,74,34,153]},"announce":[],"urlList":[]}}